<?xml version="1.0" encoding="UTF-8"?><svg id="Layer_2" xmlns="http://www.w3.org/2000/svg" xmlns:xlink="http://www.w3.org/1999/xlink" viewBox="0 0 683.72 218.74"><defs><style>.cls-1{fill:url(#linear-gradient);}.cls-1,.cls-2,.cls-3,.cls-4,.cls-5,.cls-6,.cls-7,.cls-8,.cls-9,.cls-10{stroke-width:0px;}.cls-2{fill:#919191;}.cls-3{fill:url(#linear-gradient-6);}.cls-4{fill:url(#linear-gradient-5);}.cls-5{fill:url(#linear-gradient-2);}.cls-6{fill:url(#linear-gradient-7);}.cls-7{fill:url(#linear-gradient-3);}.cls-8{fill:#5c5c5c;}.cls-9{fill:url(#linear-gradient-8);}.cls-10{fill:url(#linear-gradient-4);}</style><linearGradient id="linear-gradient" x1="223.24" y1="308.75" x2="293.52" y2="308.75" gradientTransform="translate(-189.98 -230.81) rotate(5.88)" gradientUnits="userSpaceOnUse"><stop offset="0" stop-color="#cb2e2d"/><stop offset=".04" stop-color="#cd322d"/><stop offset=".25" stop-color="#dc4a2f"/><stop offset=".47" stop-color="#e65c30"/><stop offset=".71" stop-color="#ed6631"/><stop offset="1" stop-color="#ef6a32"/></linearGradient><linearGradient id="linear-gradient-2" x1="233.56" y1="252.35" x2="380.51" y2="252.35" xlink:href="#linear-gradient"/><linearGradient id="linear-gradient-3" x1="372.22" y1="306.65" x2="442.49" y2="306.65" gradientTransform="translate(-189.98 -230.81) rotate(5.88)" gradientUnits="userSpaceOnUse"><stop offset="0" stop-color="#cb2e2d"/><stop offset=".04" stop-color="#cd322d"/><stop offset=".25" stop-color="#dc4a2f"/><stop offset=".47" stop-color="#e65c30"/><stop offset=".71" stop-color="#ed6631"/><stop offset="1" stop-color="#ef6a32"/></linearGradient><linearGradient id="linear-gradient-4" x1="285.23" y1="363.05" x2="432.17" y2="363.05" xlink:href="#linear-gradient"/><linearGradient id="linear-gradient-5" x1="265.44" y1="152.05" x2="676.52" y2="194.39" gradientUnits="userSpaceOnUse"><stop offset="0" stop-color="#f26634"/><stop offset=".15" stop-color="#ab6b5f"/><stop offset=".29" stop-color="#6e7185"/><stop offset=".41" stop-color="#4274a0"/><stop offset=".5" stop-color="#2777b1"/><stop offset=".56" stop-color="#1d78b8"/><stop offset=".6" stop-color="#3086a1"/><stop offset=".67" stop-color="#4b9c82"/><stop offset=".74" stop-color="#60ac6a"/><stop offset=".82" stop-color="#70b858"/><stop offset=".9" stop-color="#79bf4e"/><stop offset="1" stop-color="#7cc24b"/></linearGradient><linearGradient id="linear-gradient-6" x1="268.78" y1="142.23" x2="652.5" y2="181.75" xlink:href="#linear-gradient-5"/><linearGradient id="linear-gradient-7" x1="278.66" y1="124.42" x2="668.14" y2="164.53" xlink:href="#linear-gradient-5"/><linearGradient id="linear-gradient-8" x1="269.64" y1="111.23" x2="680.72" y2="153.57" xlink:href="#linear-gradient-5"/></defs><g id="Text"><path class="cls-1" d="m77.62,35.89s-37.56-17.89-61.04,15.59c0,0-39.26,55.63,3.03,119.72,0,0,12.3,15.99,15.5-11.54,2.81-24.17,10.74-104.3,10.74-104.3,0,0,.32-28.57,31.77-19.47Z"/><path class="cls-5" d="m16.59,51.49S39.75,8.93,94.94,1.08c32.44-4.62,57.79,6.73,69.18,13.25,3.16,1.81,3.61,6.2.86,8.6-3.03,2.65-6.7,6.37-9.45,10.79-.1.16-.19.32-.27.48-5.34,11.08-9.64,46.92-9.64,46.92l-2.74,27.44c0,.05,0,.11-.01.16-.05.8-.79,7.93-9.69-5.65-9.4-14.35-31.55-56.11-55.56-67.19-16.45-7.23-44.57-9.62-62.04,17.16"/><path class="cls-7" d="m141.6,182.85s37.56,17.89,61.04-15.59c0,0,39.26-55.63-3.03-119.72,0,0-12.3-15.99-15.5,11.54-2.81,24.17-10.74,104.3-10.74,104.3,0,0-.32,28.57-31.77,19.47Z"/><path class="cls-10" d="m202.64,167.26s-23.16,42.55-78.35,50.41c-32.44,4.62-57.79-6.73-69.18-13.25-3.16-1.81-3.61-6.2-.86-8.6,3.03-2.65,6.7-6.37,9.45-10.79.1-.16.19-.32.27-.48,5.34-11.08,9.64-46.92,9.64-46.92l2.74-27.44c0-.05,0-.11.01-.16.05-.8.79-7.93,9.69,5.65,9.4,14.35,31.55,56.11,55.56,67.19,16.45,7.23,44.57,9.62,62.04-17.16"/><path class="cls-2" d="m270.14,194.09c0,.64-.24,1.17-.7,1.61-.47.43-1.01.64-1.62.64-.69,0-1.24-.21-1.66-.64-.42-.43-.63-.97-.63-1.61v-21.31c0-.64.22-1.17.66-1.6s1.01-.65,1.7-.65c.59,0,1.11.22,1.57.65s.68.97.68,1.6v21.31Z"/><path class="cls-2" d="m285.84,176.24c1.82,0,3.2.38,4.15,1.14.94.76,1.59,1.78,1.95,3.04.36,1.27.53,2.67.53,4.22v9.43c0,.64-.21,1.17-.63,1.61-.42.43-.94.64-1.58.64s-1.17-.21-1.59-.64c-.42-.43-.63-.97-.63-1.61v-9.43c0-.81-.1-1.54-.31-2.19s-.59-1.17-1.12-1.57c-.54-.39-1.31-.59-2.32-.59s-1.81.2-2.49.59c-.68.39-1.2.92-1.55,1.57s-.53,1.38-.53,2.19v9.43c0,.64-.21,1.17-.63,1.61-.42.43-.95.64-1.59.64s-1.16-.21-1.58-.64c-.42-.43-.63-.97-.63-1.61v-15.23c0-.64.21-1.17.63-1.6.42-.43.95-.64,1.58-.64s1.17.21,1.59.64c.42.43.63.97.63,1.6v1.59l-.55-.11c.22-.42.54-.86.96-1.35.42-.48.91-.93,1.48-1.35.56-.42,1.2-.75,1.91-1.01.71-.26,1.49-.39,2.32-.39Z"/><path class="cls-2" d="m313.42,169.06c.64,0,1.16.21,1.58.63.42.42.63.96.63,1.62v22.78c0,.64-.21,1.17-.63,1.61-.42.43-.95.64-1.58.64s-1.17-.21-1.58-.64c-.42-.43-.63-.97-.63-1.61v-1.81l.81.33c0,.32-.17.71-.52,1.16-.34.46-.81.9-1.4,1.35-.59.44-1.29.82-2.08,1.12s-1.67.46-2.6.46c-1.7,0-3.23-.44-4.61-1.31-1.38-.87-2.46-2.08-3.26-3.61-.8-1.54-1.2-3.3-1.2-5.29s.4-3.79,1.2-5.33c.8-1.54,1.88-2.74,3.23-3.61,1.35-.87,2.85-1.31,4.5-1.31,1.05,0,2.03.16,2.91.48.89.32,1.66.72,2.31,1.22.65.49,1.15.99,1.51,1.49.36.5.54.93.54,1.27l-1.33.48v-9.88c0-.64.21-1.17.63-1.6.42-.43.95-.65,1.58-.65Zm-7.45,23.59c1.08,0,2.03-.27,2.84-.81.81-.54,1.45-1.28,1.9-2.21.45-.93.68-1.98.68-3.13s-.23-2.24-.68-3.17c-.45-.93-1.09-1.67-1.9-2.21-.81-.54-1.76-.81-2.84-.81s-1.99.27-2.8.81c-.81.54-1.44,1.28-1.9,2.21-.46.93-.68,1.99-.68,3.17s.23,2.2.68,3.13c.46.93,1.09,1.67,1.9,2.21.81.54,1.75.81,2.8.81Z"/><path class="cls-2" d="m322.34,174.22c-.83,0-1.43-.13-1.77-.4-.35-.27-.52-.75-.52-1.44v-.7c0-.71.19-1.2.57-1.46.38-.26.97-.39,1.75-.39.86,0,1.46.13,1.81.4.34.27.51.75.51,1.44v.7c0,.71-.18,1.2-.55,1.46-.37.26-.97.39-1.81.39Zm2.25,19.87c0,.64-.21,1.17-.63,1.61-.42.43-.95.64-1.59.64s-1.17-.21-1.58-.64c-.42-.43-.63-.97-.63-1.61v-15.23c0-.64.21-1.17.63-1.6.42-.43.95-.64,1.58-.64s1.17.21,1.59.64c.42.43.63.97.63,1.6v15.23Z"/><path class="cls-2" d="m345.27,176.24c.64,0,1.17.21,1.58.63s.63.96.63,1.62v15.59c0,.64-.21,1.17-.63,1.61-.42.43-.94.64-1.58.64s-1.17-.21-1.58-.64c-.42-.43-.63-.97-.63-1.61v-1.81l.81.33c0,.32-.17.71-.51,1.16-.35.46-.81.9-1.4,1.35-.59.44-1.28.82-2.08,1.12s-1.66.46-2.6.46c-1.7,0-3.23-.44-4.61-1.31-1.38-.87-2.46-2.08-3.26-3.61-.8-1.54-1.2-3.3-1.2-5.29s.4-3.79,1.2-5.33c.8-1.54,1.87-2.74,3.22-3.61,1.35-.87,2.85-1.31,4.5-1.31,1.06,0,2.03.16,2.91.48s1.65.72,2.31,1.22c.65.49,1.16.99,1.51,1.49s.53.93.53,1.27l-1.32.48v-2.69c0-.64.21-1.17.63-1.6s.94-.65,1.58-.65Zm-7.45,16.41c1.08,0,2.03-.27,2.84-.81.81-.54,1.44-1.28,1.9-2.21.45-.93.68-1.98.68-3.13s-.23-2.24-.68-3.17c-.46-.93-1.09-1.67-1.9-2.21-.81-.54-1.76-.81-2.84-.81s-1.99.27-2.8.81c-.81.54-1.45,1.28-1.9,2.21-.45.93-.68,1.99-.68,3.17s.23,2.2.68,3.13c.45.93,1.09,1.67,1.9,2.21.81.54,1.74.81,2.8.81Z"/><path class="cls-2" d="m357.88,174.25c0,.81-.23,1.63-.68,2.45-.46.82-1.05,1.51-1.77,2.06-.72.55-1.49.83-2.31.83-.27,0-.56-.11-.86-.33-.31-.22-.46-.6-.46-1.14,0-.57.18-.9.53-1.01s.66-.23.9-.35c.32-.17.57-.37.76-.61.18-.23.28-.52.28-.86,0-.27-.13-.51-.39-.72-.26-.21-.6-.31-1.01-.31-.15,0-.32.02-.51.06s-.37.1-.51.2c-.25-.12-.46-.28-.65-.46s-.28-.48-.28-.9c0-.76.35-1.42,1.05-1.97.7-.55,1.51-.83,2.45-.83,1.05,0,1.89.36,2.52,1.07.63.71.94,1.66.94,2.84Z"/><path class="cls-2" d="m361.27,193.28c-.25-.34-.36-.79-.33-1.33s.34-1.01.96-1.4c.39-.25.81-.35,1.25-.31s.87.26,1.29.68c.71.71,1.47,1.27,2.25,1.66.79.4,1.77.59,2.95.59.37-.02.78-.08,1.22-.17.44-.09.83-.28,1.16-.59.33-.31.5-.78.5-1.42,0-.54-.18-.97-.55-1.29s-.85-.59-1.46-.81c-.6-.22-1.27-.43-2.01-.63-.76-.22-1.54-.47-2.34-.74-.8-.27-1.53-.62-2.19-1.05-.66-.43-1.2-1-1.62-1.71-.42-.71-.63-1.61-.63-2.69,0-1.23.35-2.27,1.04-3.14.69-.86,1.58-1.52,2.67-1.99,1.09-.47,2.24-.7,3.45-.7.76,0,1.56.1,2.4.28.83.18,1.63.48,2.4.88.76.41,1.4.94,1.92,1.6.27.37.43.81.48,1.33.05.52-.18.98-.7,1.4-.37.3-.8.43-1.29.39-.49-.04-.9-.2-1.22-.5-.42-.54-.98-.97-1.68-1.29-.7-.32-1.51-.48-2.42-.48-.37,0-.77.04-1.2.13-.43.09-.81.27-1.12.55-.32.28-.48.73-.48,1.35,0,.56.18,1.01.55,1.35.37.33.87.6,1.5.81.63.21,1.29.41,2,.61.74.2,1.49.43,2.25.7.76.27,1.47.63,2.1,1.07s1.15,1.01,1.55,1.71c.39.7.59,1.59.59,2.67,0,1.25-.37,2.32-1.11,3.21-.74.89-1.66,1.56-2.76,2.01-1.1.45-2.23.68-3.39.68-1.45,0-2.9-.25-4.35-.75-1.45-.51-2.65-1.39-3.61-2.67Z"/><path class="cls-2" d="m396.88,196.34c-.69,0-1.25-.21-1.7-.64-.44-.43-.66-.97-.66-1.61v-18.58l.51.81-2.69,1.99c-.34.27-.77.4-1.29.4-.59,0-1.11-.22-1.55-.66-.44-.44-.66-.97-.66-1.58,0-.79.38-1.43,1.14-1.92l5.31-3.54c.25-.17.52-.3.83-.37.31-.07.59-.11.86-.11.71,0,1.28.22,1.7.65s.63.97.63,1.6v21.31c0,.64-.23,1.17-.68,1.61-.46.43-1.04.64-1.75.64Z"/><path class="cls-2" d="m403.7,193.28c-.25-.34-.36-.79-.33-1.33s.35-1.01.96-1.4c.39-.25.81-.35,1.25-.31s.87.26,1.29.68c.71.71,1.46,1.27,2.25,1.66.79.4,1.77.59,2.95.59.37-.02.78-.08,1.22-.17s.83-.28,1.16-.59c.33-.31.5-.78.5-1.42,0-.54-.18-.97-.55-1.29-.37-.32-.85-.59-1.45-.81-.6-.22-1.28-.43-2.01-.63-.76-.22-1.54-.47-2.34-.74-.8-.27-1.53-.62-2.19-1.05s-1.2-1-1.62-1.71c-.42-.71-.63-1.61-.63-2.69,0-1.23.35-2.27,1.03-3.14.69-.86,1.58-1.52,2.67-1.99,1.09-.47,2.24-.7,3.45-.7.76,0,1.56.1,2.4.28.83.18,1.64.48,2.4.88.76.41,1.4.94,1.92,1.6.27.37.43.81.48,1.33.05.52-.18.98-.7,1.4-.37.3-.8.43-1.29.39s-.9-.2-1.21-.5c-.42-.54-.98-.97-1.68-1.29-.7-.32-1.51-.48-2.42-.48-.37,0-.77.04-1.2.13-.43.09-.81.27-1.13.55-.32.28-.48.73-.48,1.35,0,.56.18,1.01.55,1.35.37.33.87.6,1.5.81s1.29.41,2.01.61c.74.2,1.49.43,2.25.7.76.27,1.46.63,2.1,1.07.64.44,1.16,1.01,1.55,1.71.39.7.59,1.59.59,2.67,0,1.25-.37,2.32-1.11,3.21-.74.89-1.66,1.56-2.76,2.01s-2.23.68-3.39.68c-1.45,0-2.9-.25-4.35-.75-1.45-.51-2.65-1.39-3.61-2.67Z"/><path class="cls-2" d="m422.83,176.98h8.74c.59,0,1.09.2,1.48.59.39.4.59.89.59,1.47s-.2,1.04-.59,1.42c-.39.38-.89.57-1.48.57h-8.74c-.59,0-1.08-.2-1.47-.59s-.59-.89-.59-1.48.2-1.04.59-1.42c.39-.38.88-.57,1.47-.57Zm3.94-4.61c.64,0,1.16.21,1.57.64.4.43.61.97.61,1.6v16.41c0,.35.07.63.2.85s.32.38.55.48c.23.1.48.15.75.15.29,0,.56-.06.81-.17s.53-.17.85-.17c.35,0,.66.16.94.48.28.32.42.76.42,1.33,0,.69-.37,1.25-1.12,1.7-.75.44-1.56.66-2.42.66-.52,0-1.09-.04-1.72-.13-.63-.09-1.21-.29-1.77-.63-.55-.33-1.01-.84-1.38-1.53-.37-.69-.55-1.63-.55-2.84v-16.59c0-.64.21-1.17.64-1.6.43-.43.96-.64,1.6-.64Z"/><path class="cls-2" d="m472.12,183.43c0,1.84-.31,3.56-.92,5.16-.62,1.6-1.48,3.01-2.6,4.22-1.12,1.22-2.45,2.17-3.98,2.86-1.54.69-3.22,1.03-5.03,1.03s-3.49-.34-5.01-1.03c-1.53-.69-2.84-1.64-3.97-2.86-1.12-1.21-1.98-2.62-2.6-4.22-.61-1.6-.92-3.32-.92-5.16s.31-3.56.92-5.16c.62-1.6,1.48-3,2.6-4.22,1.12-1.22,2.44-2.17,3.97-2.86,1.52-.69,3.19-1.03,5.01-1.03s3.5.34,5.03,1.03c1.54.69,2.86,1.64,3.98,2.86,1.12,1.22,1.98,2.62,2.6,4.22.61,1.6.92,3.32.92,5.16Zm-4.79,0c0-1.65-.33-3.14-.99-4.48-.66-1.34-1.57-2.4-2.73-3.19-1.16-.78-2.5-1.18-4.02-1.18s-2.86.4-4.02,1.18c-1.16.79-2.06,1.84-2.71,3.17-.65,1.33-.97,2.83-.97,4.5s.32,3.14.97,4.48,1.55,2.4,2.71,3.19c1.16.79,2.5,1.18,4.02,1.18s2.86-.39,4.02-1.18c1.16-.78,2.07-1.85,2.73-3.19s.99-2.83.99-4.48Z"/><path class="cls-2" d="m476.21,174.77c-.64,0-1.17-.2-1.6-.59s-.64-.91-.64-1.55.21-1.15.64-1.53.96-.57,1.6-.57h16.37c.64,0,1.17.2,1.6.59s.64.91.64,1.55-.21,1.15-.64,1.53-.97.57-1.6.57h-16.37Zm8.15,21.57c-.69,0-1.25-.21-1.7-.64-.44-.43-.67-.97-.67-1.61v-21.38h4.79v21.38c0,.64-.23,1.17-.68,1.61-.45.43-1.04.64-1.75.64Z"/><path class="cls-2" d="m516.02,171.78c.64.32,1.01.82,1.12,1.51.11.69-.07,1.31-.54,1.88-.32.44-.73.69-1.23.74-.51.05-1.01-.05-1.53-.29-.59-.27-1.21-.48-1.86-.63-.65-.15-1.33-.22-2.04-.22-1.33,0-2.51.21-3.56.63s-1.93,1.01-2.67,1.79c-.74.78-1.3,1.69-1.68,2.75-.38,1.06-.57,2.23-.57,3.5,0,1.5.21,2.8.64,3.91.43,1.11,1.02,2.03,1.79,2.76.76.74,1.66,1.29,2.69,1.64s2.15.53,3.36.53c.66,0,1.32-.06,1.99-.18s1.3-.34,1.92-.67c.52-.25,1.03-.33,1.53-.26.5.07.93.33,1.27.78.49.61.67,1.25.54,1.9-.13.65-.51,1.12-1.12,1.42-.64.32-1.3.59-1.97.79-.67.21-1.35.37-2.04.48s-1.39.17-2.1.17c-1.77,0-3.45-.28-5.03-.85-1.58-.57-3-1.4-4.24-2.51s-2.22-2.49-2.93-4.15-1.07-3.58-1.07-5.77c0-1.89.32-3.64.98-5.24.65-1.6,1.57-2.98,2.76-4.15,1.19-1.17,2.6-2.08,4.22-2.73,1.62-.65,3.39-.98,5.31-.98,1.08,0,2.14.12,3.17.37,1.03.25,2,.6,2.91,1.07Z"/><path class="cls-2" d="m542.05,170.53c1.28,0,2.48.37,3.6,1.11,1.12.74,2.02,1.73,2.71,2.99.69,1.25,1.03,2.65,1.03,4.2s-.34,2.91-1.03,4.17c-.69,1.25-1.59,2.26-2.71,3.01-1.12.75-2.32,1.12-3.6,1.12h-6.78l.37-.66v7.63c0,.64-.2,1.17-.59,1.61-.39.43-.91.64-1.55.64s-1.12-.21-1.51-.64c-.4-.43-.59-.97-.59-1.61v-21.31c0-.64.21-1.17.65-1.6.43-.43.96-.65,1.6-.65h8.4Zm0,12.39c.47,0,.93-.2,1.37-.59s.81-.9,1.1-1.53c.29-.63.44-1.28.44-1.97s-.15-1.38-.44-1.99-.66-1.11-1.1-1.49c-.44-.38-.9-.57-1.37-.57h-6.85l.44-.66v9.4l-.4-.59h6.82Z"/><path class="cls-2" d="m558.05,194.09c0,.64-.21,1.17-.64,1.61-.43.43-.97.64-1.61.64s-1.13-.21-1.54-.64c-.42-.43-.63-.97-.63-1.61v-22.78c0-.64.21-1.17.65-1.6.43-.43.96-.65,1.6-.65s1.16.22,1.57.65.61.96.61,1.6v22.78Z"/><path class="cls-2" d="m579.36,176.24c.64,0,1.16.21,1.58.63.42.42.63.96.63,1.62v15.59c0,.64-.21,1.17-.63,1.61-.42.43-.94.64-1.58.64s-1.17-.21-1.59-.64c-.42-.43-.63-.97-.63-1.61v-1.81l.81.33c0,.32-.17.71-.51,1.16-.34.46-.81.9-1.4,1.35s-1.28.82-2.08,1.12c-.8.31-1.67.46-2.6.46-1.7,0-3.23-.44-4.61-1.31-1.38-.87-2.46-2.08-3.26-3.61-.8-1.54-1.2-3.3-1.2-5.29s.4-3.79,1.2-5.33,1.87-2.74,3.22-3.61c1.35-.87,2.85-1.31,4.5-1.31,1.05,0,2.03.16,2.91.48.88.32,1.65.72,2.31,1.22.65.49,1.15.99,1.51,1.49s.54.93.54,1.27l-1.33.48v-2.69c0-.64.21-1.17.63-1.6s.95-.65,1.59-.65Zm-7.45,16.41c1.08,0,2.03-.27,2.84-.81.81-.54,1.44-1.28,1.9-2.21.45-.93.68-1.98.68-3.13s-.23-2.24-.68-3.17c-.46-.93-1.09-1.67-1.9-2.21s-1.76-.81-2.84-.81-1.99.27-2.8.81-1.44,1.28-1.9,2.21c-.45.93-.68,1.99-.68,3.17s.23,2.2.68,3.13c.46.93,1.09,1.67,1.9,2.21.81.54,1.74.81,2.8.81Z"/><path class="cls-2" d="m586.58,176.98h8.74c.59,0,1.09.2,1.48.59.39.4.59.89.59,1.47s-.2,1.04-.59,1.42c-.39.38-.89.57-1.48.57h-8.74c-.59,0-1.08-.2-1.47-.59s-.59-.89-.59-1.48.2-1.04.59-1.42c.39-.38.88-.57,1.47-.57Zm3.94-4.61c.64,0,1.16.21,1.57.64.4.43.61.97.61,1.6v16.41c0,.35.07.63.2.85s.32.38.55.48c.23.1.48.15.75.15.29,0,.56-.06.81-.17s.53-.17.85-.17c.35,0,.66.16.94.48.28.32.42.76.42,1.33,0,.69-.37,1.25-1.12,1.7-.75.44-1.56.66-2.42.66-.52,0-1.09-.04-1.72-.13-.63-.09-1.21-.29-1.77-.63-.55-.33-1.01-.84-1.38-1.53-.37-.69-.55-1.63-.55-2.84v-16.59c0-.64.21-1.17.64-1.6.43-.43.96-.64,1.6-.64Z"/><path class="cls-2" d="m611.06,176.98c.59,0,1.08.19,1.48.57.39.38.59.87.59,1.46s-.2,1.08-.59,1.46c-.4.38-.89.57-1.48.57h-9.77c-.59,0-1.09-.19-1.48-.57-.39-.38-.59-.87-.59-1.46s.2-1.07.59-1.46c.39-.38.89-.57,1.48-.57h9.77Zm-.4-7.93c.54,0,1.07.07,1.58.22.52.15.95.39,1.29.72s.51.77.51,1.31c0,.61-.18,1.1-.53,1.46s-.77.53-1.24.53c-.22,0-.55-.06-1-.17-.44-.11-.87-.17-1.29-.17-.62,0-1.09.13-1.42.4-.33.27-.56.59-.68.94s-.18.67-.18.94v18.84c0,.64-.21,1.17-.63,1.61-.42.43-.95.64-1.59.64s-1.16-.21-1.58-.64c-.42-.43-.63-.97-.63-1.61v-18.8c0-1.74.62-3.22,1.85-4.42s3.07-1.81,5.53-1.81Z"/><path class="cls-2" d="m634.66,186.49c0,2.01-.45,3.79-1.35,5.33-.9,1.54-2.1,2.73-3.61,3.59-1.51.86-3.2,1.29-5.07,1.29s-3.56-.43-5.07-1.29c-1.51-.86-2.72-2.06-3.61-3.59-.9-1.54-1.35-3.31-1.35-5.33s.45-3.79,1.35-5.33c.9-1.54,2.1-2.74,3.61-3.61,1.51-.87,3.2-1.31,5.07-1.31s3.56.44,5.07,1.31c1.51.87,2.72,2.08,3.61,3.61.9,1.54,1.35,3.31,1.35,5.33Zm-4.43,0c0-1.25-.25-2.34-.75-3.26-.5-.92-1.18-1.64-2.03-2.16-.85-.51-1.79-.78-2.82-.78s-1.97.26-2.82.78c-.85.51-1.52,1.24-2.03,2.16-.51.92-.76,2.01-.76,3.26s.25,2.31.76,3.22c.5.92,1.18,1.64,2.03,2.16.85.51,1.79.77,2.82.77s1.97-.26,2.82-.77c.85-.52,1.53-1.24,2.03-2.16.5-.92.75-2,.75-3.22Z"/><path class="cls-2" d="m640.74,196.34c-.64,0-1.17-.21-1.59-.64-.42-.43-.63-.97-.63-1.61v-15.23c0-.64.21-1.17.63-1.6.42-.43.95-.64,1.59-.64s1.16.21,1.58.64c.42.43.63.97.63,1.6v3.47l-.26-2.47c.27-.59.62-1.11,1.05-1.57s.91-.84,1.46-1.14,1.12-.53,1.73-.68,1.23-.22,1.85-.22c.74,0,1.35.21,1.86.63.5.42.76.91.76,1.47,0,.81-.21,1.39-.63,1.75-.42.36-.87.54-1.36.54s-.89-.09-1.27-.26c-.38-.17-.82-.26-1.31-.26-.44,0-.89.1-1.34.31-.46.21-.88.54-1.26.98-.38.44-.69.99-.92,1.64-.23.65-.35,1.42-.35,2.31v8.74c0,.64-.21,1.17-.63,1.61-.42.43-.95.64-1.58.64Z"/><path class="cls-2" d="m664.88,176.24c1.96,0,3.42.48,4.35,1.42.93.95,1.55,2.17,1.85,3.67l-.63-.33.29-.59c.29-.56.75-1.17,1.36-1.82.62-.65,1.36-1.2,2.23-1.66s1.85-.68,2.93-.68c1.77,0,3.11.38,4.04,1.14.92.76,1.55,1.78,1.9,3.04.34,1.27.52,2.67.52,4.22v9.43c0,.64-.21,1.17-.63,1.61-.42.43-.94.64-1.58.64s-1.17-.21-1.59-.64c-.42-.43-.63-.97-.63-1.61v-9.43c0-.81-.1-1.54-.29-2.19-.2-.65-.55-1.17-1.07-1.57-.51-.39-1.25-.59-2.21-.59s-1.73.2-2.39.59c-.67.39-1.16.92-1.5,1.57-.33.65-.5,1.38-.5,2.19v9.43c0,.64-.21,1.17-.63,1.61-.42.43-.95.64-1.59.64s-1.16-.21-1.58-.64c-.42-.43-.63-.97-.63-1.61v-9.43c0-.81-.1-1.54-.29-2.19s-.55-1.17-1.07-1.57-1.25-.59-2.21-.59-1.73.2-2.4.59c-.66.39-1.16.92-1.49,1.57-.33.65-.5,1.38-.5,2.19v9.43c0,.64-.21,1.17-.63,1.61-.42.43-.94.64-1.58.64s-1.17-.21-1.59-.64c-.42-.43-.63-.97-.63-1.61v-15.23c0-.64.21-1.17.63-1.6.42-.43.94-.64,1.59-.64s1.16.21,1.58.64c.42.43.63.97.63,1.6v1.59l-.55-.11c.22-.42.53-.86.92-1.35.4-.48.87-.93,1.44-1.35.56-.42,1.19-.75,1.88-1.01.69-.26,1.43-.39,2.25-.39Z"/><rect class="cls-4" x="265.51" y="151.35" width="14.64" height="2.93"/><path class="cls-3" d="m442.62,154.27h-20.31v-2.93h20.31v2.93Zm-40.62,0h-20.31v-2.93h20.31v2.93Zm-40.62,0h-20.31v-2.93h20.31v2.93Zm-40.62,0h-20.31v-2.93h20.31v2.93Z"/><path class="cls-6" d="m645.7,154.27h-20.31v-2.93h20.31v2.93Zm-40.62,0h-20.31v-2.93h20.31v2.93Zm-40.62,0h-20.31v-2.93h20.31v2.93Zm-40.62,0h-20.31v-2.93h20.31v2.93Zm-40.62,0h-20.31v-2.93h20.31v2.93Z"/><rect class="cls-9" x="666.01" y="151.35" width="14.64" height="2.93"/><path class="cls-8" d="m343.62,49.42v75.81c0,4.57-3.81,8.25-8.38,8.25h-1.52c-2.79,0-5.21-1.4-6.73-3.43l-49.14-70.98v68.7c0,3.17-2.67,5.71-5.84,5.71s-5.72-2.54-5.72-5.71V51.96c0-4.57,3.68-8.38,8.25-8.38h1.65c2.79,0,5.21,1.52,6.98,3.81l48.89,70.6V49.42c0-3.17,2.54-5.84,5.72-5.84s5.84,2.67,5.84,5.84Z"/><path class="cls-8" d="m335.24,134.95h-1.52c-3.11,0-5.99-1.46-7.9-4.01l-46.51-67.17v64.01c0,3.96-3.28,7.18-7.3,7.18s-7.18-3.22-7.18-7.18V51.96c0-5.43,4.36-9.84,9.72-9.84h1.65c3.05,0,5.95,1.55,8.14,4.38l46.27,66.81v-63.88c0-4.03,3.22-7.3,7.18-7.3s7.3,3.34,7.3,7.3v75.81c0,5.36-4.42,9.72-9.84,9.72Zm-58.86-80.56l51.81,74.83c1.32,1.76,3.35,2.8,5.53,2.8h1.52c3.81,0,6.92-3.05,6.92-6.79V49.42c0-2.37-2-4.38-4.38-4.38s-4.25,1.96-4.25,4.38v73.25l-51.55-74.45c-1.1-1.42-3.05-3.18-5.78-3.18h-1.65c-3.74,0-6.79,3.1-6.79,6.92v75.81c0,2.38,1.87,4.25,4.25,4.25s4.38-1.91,4.38-4.25V54.39Z"/><path class="cls-8" d="m454.85,127.77c0,3.17-2.16,5.71-5.71,5.71-2.41,0-4.44-1.27-5.46-3.56l-8.25-19.81h-43.17l-8.25,19.81c-1.01,2.29-3.05,3.56-5.46,3.56-3.56,0-5.71-2.54-5.71-5.71,0-.76.25-1.65.63-2.54l32.38-76.44c1.14-2.67,3.56-5.21,7.36-5.21h1.27c3.81,0,6.22,2.54,7.36,5.21l32.38,76.44c.38.89.63,1.78.63,2.54Zm-23.87-28.19l-17.14-41.27-17.14,41.27h34.28Z"/><path class="cls-8" d="m449.14,134.95c-3.03,0-5.57-1.65-6.8-4.42l-7.89-18.94h-41.22l-7.88,18.91c-1.24,2.8-3.78,4.46-6.81,4.46-4.16,0-7.18-3.02-7.18-7.18,0-.9.25-1.95.75-3.12l32.38-76.43c1.64-3.82,4.89-6.1,8.71-6.1h1.27c3.82,0,7.08,2.28,8.71,6.09l32.38,76.45c.5,1.16.75,2.21.75,3.11,0,4.16-3.02,7.18-7.18,7.18Zm-57.86-26.29h45.13l8.63,20.71c.74,1.68,2.25,2.65,4.11,2.65,2.94,0,4.25-2.13,4.25-4.25,0-.35-.09-.97-.52-1.96l-32.38-76.45c-.55-1.29-2.25-4.31-6.02-4.31h-1.27c-3.76,0-5.46,3.02-6.02,4.32l-32.38,76.43c-.43,1-.52,1.62-.52,1.97,0,2.12,1.31,4.25,4.25,4.25,1.89,0,3.35-.95,4.12-2.69l8.62-20.68Zm41.9-7.61h-38.67l19.34-46.55,19.34,46.55Zm-34.28-2.93h29.9l-14.95-35.99-14.95,35.99Z"/><path class="cls-8" d="m581.95,51.96v75.81c0,3.17-2.54,5.71-5.72,5.71s-5.84-2.54-5.84-5.71V55.65l-29.33,72.5c-1.4,3.17-4.44,5.33-8.13,5.33s-6.73-2.16-8.13-5.33l-29.33-72.5v72.12c0,3.17-2.67,5.71-5.84,5.71s-5.72-2.54-5.72-5.71V51.96c0-4.57,3.68-8.38,8.25-8.38h4.19c3.43,0,6.48,2.29,7.75,5.33l28.82,71.87,28.82-71.87c1.27-3.05,4.32-5.33,7.74-5.33h4.19c4.57,0,8.25,3.81,8.25,8.38Z"/><path class="cls-8" d="m576.24,134.95c-4.03,0-7.3-3.22-7.3-7.18V63.17l-26.51,65.53c-1.7,3.87-5.33,6.25-9.48,6.25s-7.78-2.38-9.47-6.21l-26.53-65.57v64.6c0,3.96-3.28,7.18-7.3,7.18s-7.18-3.22-7.18-7.18V51.96c0-5.43,4.36-9.84,9.72-9.84h4.19c3.89,0,7.54,2.51,9.1,6.23l27.47,68.5,27.47-68.48c1.56-3.75,5.21-6.25,9.1-6.25h4.19c5.36,0,9.72,4.42,9.72,9.84v75.81c0,3.96-3.22,7.18-7.18,7.18Zm-4.38-86.82v79.65c0,2.34,1.96,4.25,4.38,4.25s4.25-1.87,4.25-4.25V51.96c0-3.81-3.05-6.92-6.79-6.92h-4.19c-2.72,0-5.29,1.78-6.39,4.43l-30.17,75.24-30.18-75.26c-1.1-2.63-3.67-4.41-6.39-4.41h-4.19c-3.74,0-6.79,3.1-6.79,6.92v75.81c0,2.38,1.87,4.25,4.25,4.25s4.38-1.91,4.38-4.25V48.12l32.15,79.48c1.19,2.71,3.79,4.42,6.77,4.42s5.58-1.71,6.79-4.46l32.13-79.44Z"/><path class="cls-8" d="m682.26,127.51c0,3.05-2.41,5.33-5.46,5.33h-50.92c-3.17,0-5.72-2.54-5.72-5.71V50.06c0-3.17,2.54-5.84,5.72-5.84h50.92c3.05,0,5.46,2.41,5.46,5.46s-2.41,5.33-5.46,5.33h-45.08v28.06h40.51c3.05,0,5.46,2.41,5.46,5.46s-2.41,5.33-5.46,5.33h-40.51v28.19h45.08c3.05,0,5.46,2.41,5.46,5.46Z"/><path class="cls-8" d="m676.8,134.31h-50.92c-3.96,0-7.18-3.22-7.18-7.18V50.06c0-4.03,3.22-7.3,7.18-7.3h50.92c3.88,0,6.92,3.04,6.92,6.92s-3.04,6.8-6.92,6.8h-43.61v25.13h39.04c3.88,0,6.92,3.04,6.92,6.92s-3.04,6.8-6.92,6.8h-39.04v25.26h43.61c3.88,0,6.92,3.04,6.92,6.92s-3.04,6.8-6.92,6.8Zm-50.92-88.63c-2.34,0-4.25,1.96-4.25,4.38v77.08c0,2.38,1.87,4.25,4.25,4.25h50.92c2.28,0,4-1.66,4-3.87s-1.76-4-4-4h-46.54v-31.12h41.97c2.28,0,4-1.66,4-3.87s-1.76-4-4-4h-41.97v-30.99h46.54c2.28,0,4-1.66,4-3.87s-1.76-4-4-4h-50.92Z"/></g></svg>